# xmcd CD database file
#
# Track frame offsets:
#	150
#	15120
#	42694
#	66163
#	101406
#	124816
#	148543
#	157510
#	188154
#	206271
#	228322
#	257456
#
# Disc length: 3723 seconds
#
# Revision: 0
# Processed by: cddbd v1.5.2PL0 Copyright (c) Steve Scherf et al.
# Submitted via: CDex 1.70beta2
#
DISCID=900e890c
DTITLE=Adrián Iaies • Horacio Fumero - Conversaciones Desde El Arrabal Amargo - CD1
DYEAR=2012
DGENRE=Jazz
TTITLE0=Arrabal Amargo
TTITLE1=Chiquilín De Bachín
TTITLE2=Uno
TTITLE3=Tonada Del Viejo Amor
TTITLE4=Monk's Mood
TTITLE5=Nunca Tuvo Novio
TTITLE6=La Dejé Partir
TTITLE7=La Colina De La Vida
TTITLE8=Laura Va
TTITLE9=Mi Refugio
TTITLE10=Fermín
TTITLE11=My One And Only Love
EXTD=YEAR: 2012
EXTT0=
EXTT1=
EXTT2=
EXTT3=
EXTT4=
EXTT5=
EXTT6=
EXTT7=
EXTT8=
EXTT9=
EXTT10=
EXTT11=
PLAYORDER=
